<svg width="25" height="25" viewBox="0 0 25 25" fill="none" xmlns="http://www.w3.org/2000/svg">
<path d="M16.8576 11.2813H13.6701L12.8784 13.6667H15.2638C16.1388 13.6667 16.8576 14.3751 16.8576 15.2605C16.8576 16.1355 16.1492 16.8542 15.2638 16.8542H12.8784" stroke="white" stroke-width="1.575" stroke-linecap="round" stroke-linejoin="round"/>
<path d="M10.1702 16.8438V11.2813L8.60767 13.0209" stroke="white" stroke-width="1.575" stroke-linecap="round" stroke-linejoin="round"/>
<path d="M10.6704 4.6562L12.7329 2.08331" stroke="white" stroke-width="1.575" stroke-linecap="round" stroke-linejoin="round"/>
<path d="M5.34716 8.12469C4.19091 9.66636 3.47217 11.5726 3.47217 13.6559C3.47217 18.7705 7.61802 22.9164 12.7326 22.9164C17.8472 22.9164 21.993 18.7705 21.993 13.6559C21.993 8.54136 17.8472 4.39551 12.7326 4.39551C12.0243 4.39551 11.3368 4.48931 10.6701 4.64556" stroke="white" stroke-width="1.575" stroke-linecap="round" stroke-linejoin="round"/>
</svg>
