<svg width="25" height="25" viewBox="0 0 25 25" fill="none" xmlns="http://www.w3.org/2000/svg">
<path d="M16.8578 11.2813H13.6703L12.8787 13.6667H15.2641C16.1391 13.6667 16.8578 14.3751 16.8578 15.2605C16.8578 16.1355 16.1495 16.8542 15.2641 16.8542H12.8787" stroke="white" stroke-width="1.575" stroke-linecap="round" stroke-linejoin="round"/>
<path d="M10.1704 16.8438V11.2813L8.60791 13.0209" stroke="white" stroke-width="1.575" stroke-linecap="round" stroke-linejoin="round"/>
<path d="M14.7954 4.6562L12.7329 2.08331" stroke="white" stroke-width="1.575" stroke-linecap="round" stroke-linejoin="round"/>
<path d="M20.118 8.12469C21.2743 9.66636 21.993 11.5726 21.993 13.6559C21.993 18.7705 17.8472 22.9164 12.7326 22.9164C7.61802 22.9164 3.47217 18.7705 3.47217 13.6559C3.47217 8.54136 7.61802 4.39551 12.7326 4.39551C13.4409 4.39551 14.1284 4.48931 14.7951 4.64556" stroke="white" stroke-width="1.575" stroke-linecap="round" stroke-linejoin="round"/>
</svg>
